<svg width="122" height="34" viewBox="0 0 122 34" fill="none" xmlns="http://www.w3.org/2000/svg">
<path d="M14.5074 14.7305L7.0321 7.35904C6.8855 7.21807 6.7462 7.31568 6.7462 7.47836V28.8512L0.000390962 22.1993V7.47836C-0.00328446 6.12832 0.402455 4.80802 1.16549 3.68712C1.92853 2.56621 3.014 1.69589 4.28245 1.18796C5.53531 0.665464 6.91771 0.523239 8.25296 0.779449C9.59903 1.04451 10.8345 1.69896 11.8018 2.65932L14.5074 5.32367V14.7305Z" fill="url(#paint0_linear_729_10479)"/>
<path d="M6.74618 14.481V28.8512L0.000366211 22.1993C0.000366211 22.1993 6.74618 24.6396 6.74618 14.481Z" fill="url(#paint1_linear_729_10479)"/>
<path d="M12.8173 13.0639L7.03203 7.35913C6.88543 7.21816 6.74614 7.31577 6.74614 7.47845V28.8513L3.32556 25.4747V9.70178C3.32556 4.26832 8.65251 4.65136 8.65251 4.65136C8.65251 4.65136 12.326 9.23899 12.8173 13.0639Z" fill="url(#paint2_linear_729_10479)"/>
<path d="M6.74614 14.481V28.8512L3.32556 25.4746V22.1668C5.02667 21.5269 6.74614 19.6109 6.74614 14.481Z" fill="url(#paint3_linear_729_10479)"/>
<path d="M10.537 10.8187L7.03208 7.35897C6.88548 7.218 6.74619 7.31561 6.74619 7.47829V10.2367C6.74619 6.65398 -0.058302 5.3236 0.000377351 13.324V7.47861C-0.00182547 6.18541 0.370853 4.91855 1.0745 3.82728C3.39887 3.25608 7.08333 4.74919 9.5104 5.03832C12.7476 5.4252 11.2152 9.55373 10.8228 10.5479C10.7963 10.6098 10.7573 10.6657 10.7081 10.7122C10.659 10.7588 10.6008 10.795 10.537 10.8187V10.8187Z" fill="url(#paint4_linear_729_10479)"/>
<path d="M10.537 10.8188L7.03204 7.35912C6.88544 7.21816 6.74615 7.31577 6.74615 7.47845V10.2368C6.7366 9.8562 6.65103 9.48117 6.49435 9.1332C6.33767 8.78522 6.11295 8.47112 5.83304 8.20888C5.55314 7.94663 5.22353 7.7414 4.86311 7.6049C4.50268 7.4684 4.1185 7.40331 3.73254 7.41338C4.07617 6.64611 4.62671 5.98654 5.32423 5.50653C6.02175 5.02653 6.83948 4.7445 7.68832 4.69116C8.09895 4.78872 8.49857 4.87548 8.87617 4.9442C9.80853 6.17961 10.6374 7.48781 11.3545 8.85584C11.22 9.432 11.0423 9.99751 10.8229 10.5477C10.7963 10.6097 10.7573 10.6657 10.7082 10.7123C10.659 10.7589 10.6008 10.7951 10.537 10.8188V10.8188Z" fill="url(#paint5_linear_729_10479)"/>
<path d="M14.5074 14.7305L7.0321 7.35904C3.10562 3.48722 0.000390962 5.32368 0.000390962 10.3741V7.47836C-0.00328446 6.12832 0.402455 4.80802 1.16549 3.68712C1.92853 2.56621 3.014 1.69589 4.28245 1.18796C5.53531 0.665464 6.91771 0.523239 8.25296 0.779449C9.59903 1.04451 10.8345 1.69896 11.8018 2.65932L14.5074 5.32367V14.7305Z" fill="url(#paint6_linear_729_10479)"/>
<path d="M2.95167 5.28757C1.15893 5.41043 0.000390962 7.29398 0.000390962 10.3741V7.47836C-0.00328447 6.12832 0.402455 4.80802 1.16549 3.68712C1.92853 2.56621 3.014 1.69589 4.28245 1.18796C5.53531 0.665464 6.91771 0.523239 8.25296 0.779449C9.37868 1.00105 10.4307 1.49553 11.3142 2.2183C11.3105 2.2183 5.42635 0.182929 2.95167 5.28757Z" fill="url(#paint7_linear_729_10479)"/>
<path d="M14.5074 14.7305L7.0321 7.35906C3.10562 3.48724 0.000390962 5.3237 0.000390962 10.3741V7.47838C-0.00328446 6.12834 0.402455 4.80805 1.16549 3.68714C1.92853 2.56623 3.014 1.69591 4.28245 1.18799C5.3577 0.739492 6.53157 0.570201 7.69202 0.696286C4.47679 0.656532 4.41082 3.37517 6.81581 5.06707C7.61869 5.63467 11.8862 9.67668 14.5074 12.1781V14.7305Z" fill="url(#paint8_linear_729_10479)"/>
<path d="M2.95167 5.2876C1.15893 5.41045 0.000390962 7.294 0.000390962 10.3741V7.47838C-0.00328446 6.12834 0.402455 4.80805 1.16549 3.68714C1.92853 2.56623 3.014 1.69591 4.28245 1.18799C5.3577 0.739492 6.53157 0.570201 7.69202 0.696286C5.78564 0.670982 4.99006 1.61821 5.15502 2.74283C4.18963 3.36666 3.42516 4.24959 2.95167 5.2876V5.2876Z" fill="#0075C2"/>
<path d="M11.8049 19.4451L19.2808 26.8167C19.4274 26.9576 19.5667 26.8601 19.5667 26.6973V5.32397L26.3127 11.9761V26.6973C26.3163 28.0474 25.9106 29.3677 25.1475 30.4887C24.3845 31.6096 23.299 32.48 22.0305 32.9879C20.7719 33.5142 19.3821 33.6553 18.0412 33.3929C16.7004 33.1306 15.4704 32.4769 14.511 31.5168L11.8052 28.8524L11.8049 19.4451Z" fill="url(#paint9_linear_729_10479)"/>
<path d="M19.5665 19.6946V5.32397L26.3124 11.9761C26.3124 11.9761 19.5665 9.53571 19.5665 19.6946Z" fill="url(#paint10_linear_729_10479)"/>
<path d="M13.4951 21.112L19.2805 26.8169C19.4272 26.9578 19.5665 26.8603 19.5665 26.6975V5.32397L22.9871 8.70062V24.474C22.9871 29.9075 17.66 29.5245 17.66 29.5245C17.66 29.5245 13.9864 24.937 13.4951 21.112Z" fill="url(#paint11_linear_729_10479)"/>
<path d="M19.5665 19.6946V5.32397L22.9871 8.70062V12.0086C21.2859 12.6485 19.5665 14.5646 19.5665 19.6946Z" fill="url(#paint12_linear_729_10479)"/>
<path d="M15.7755 23.3569L19.2805 26.8167C19.4272 26.9577 19.5665 26.8602 19.5665 26.6974V23.939C19.5665 27.5217 26.3711 28.8522 26.3124 20.8516V26.6974C26.3146 27.9906 25.9419 29.2576 25.2383 30.3489C22.9139 30.9201 19.2293 29.427 16.8022 29.1378C13.5649 28.7509 15.0974 24.6223 15.4894 23.6281C15.516 23.5661 15.555 23.5101 15.6042 23.4635C15.6534 23.4169 15.7117 23.3806 15.7755 23.3569V23.3569Z" fill="url(#paint13_linear_729_10479)"/>
<path d="M15.7755 23.3569L19.2805 26.8168C19.4271 26.9577 19.5664 26.8602 19.5664 26.6974V23.939C19.576 24.3196 19.6616 24.6946 19.8183 25.0426C19.975 25.3906 20.1997 25.7047 20.4797 25.9669C20.7596 26.2292 21.0891 26.4344 21.4496 26.5709C21.81 26.7075 22.1941 26.7726 22.5801 26.7626C22.2364 27.5298 21.6858 28.1894 20.9883 28.6694C20.2908 29.1494 19.4731 29.4315 18.6242 29.4848C18.2136 29.3872 17.8139 29.3005 17.4363 29.2318C16.5039 27.9963 15.675 26.6881 14.9579 25.32C15.0924 24.7439 15.2701 24.1783 15.4895 23.6281C15.5161 23.5661 15.5551 23.5102 15.6043 23.4635C15.6534 23.4169 15.7117 23.3807 15.7755 23.3569V23.3569Z" fill="url(#paint14_linear_729_10479)"/>
<path d="M11.8049 19.4451L19.2808 26.8166C23.2073 30.6885 26.3127 28.852 26.3127 23.8015V26.6973C26.3163 28.0474 25.9106 29.3677 25.1475 30.4886C24.3845 31.6096 23.299 32.4799 22.0305 32.9879C20.7719 33.5141 19.3821 33.6552 18.0412 33.3929C16.7004 33.1305 15.4704 32.4769 14.511 31.5167L11.8052 28.8523L11.8049 19.4451Z" fill="url(#paint15_linear_729_10479)"/>
<path d="M23.3611 28.8882C25.1539 28.7653 26.3124 26.8817 26.3124 23.8013V26.6971C26.3161 28.0472 25.9103 29.3675 25.1472 30.4884C24.3842 31.6094 23.2987 32.4797 22.0302 32.9877C20.7773 33.5102 19.3949 33.6524 18.0596 33.3962C16.9339 33.1746 15.8818 32.6801 14.9983 31.9573C15.0019 31.9576 20.8863 33.9928 23.3611 28.8882Z" fill="url(#paint16_linear_729_10479)"/>
<path d="M11.8049 19.4451L19.2808 26.8166C23.2073 30.6885 26.3127 28.852 26.3127 23.8015V26.6973C26.3163 28.0474 25.9106 29.3677 25.1475 30.4886C24.3845 31.6096 23.299 32.4799 22.0305 32.9879C20.9552 33.4363 19.7813 33.6056 18.6208 33.4796C21.8361 33.5193 21.9021 30.8006 19.497 29.1087C18.6942 28.541 14.4266 24.499 11.8052 21.9975L11.8049 19.4451Z" fill="url(#paint17_linear_729_10479)"/>
<path d="M23.3611 28.8882C25.1539 28.7653 26.3124 26.8817 26.3124 23.8013V26.6971C26.316 28.0472 25.9103 29.3675 25.1472 30.4884C24.3842 31.6094 23.2987 32.4797 22.0302 32.9877C20.9549 33.4362 19.781 33.6054 18.6205 33.4794C20.527 33.5047 21.3226 32.5574 21.1576 31.4328C22.123 30.809 22.8875 29.9261 23.3611 28.8882V28.8882Z" fill="#E1007F"/>
<path d="M44.4237 18.6308L44.3363 8.89844H48.2971V24.8673H44.708L38.5152 15.2426L38.6026 24.8673H34.6418V8.89844H38.209L44.4237 18.6308Z" fill="#231916"/>
<path d="M53.6578 20.1198C53.7785 20.7507 54.1311 21.3154 54.648 21.7058C55.1649 22.0961 55.8098 22.2845 56.4589 22.2349C56.8954 22.2596 57.3307 22.1685 57.7194 21.9712C58.1082 21.7738 58.4362 21.4774 58.6695 21.1127H62.3892C61.8762 22.3446 61.0186 23.4074 59.9164 24.177C58.9072 24.8855 57.6975 25.2629 56.4587 25.2558C54.7498 25.2506 53.1123 24.5796 51.9027 23.3892C50.6932 22.1987 50.0097 20.5852 50.0011 18.9C49.9924 17.2148 50.6594 15.5946 51.8567 14.3921C53.054 13.1897 54.6846 12.5025 56.3933 12.4803C57.2507 12.4669 58.1016 12.6287 58.8925 12.9556C59.6833 13.2824 60.397 13.7671 60.9886 14.3792C61.7055 15.1397 62.233 16.0543 62.5294 17.0506C62.8257 18.047 62.8828 19.0977 62.6961 20.1195L53.6578 20.1198ZM59.1293 17.401C58.9325 16.846 58.5656 16.365 58.0794 16.0247C57.5932 15.6844 57.0117 15.5016 56.4155 15.5016C55.8193 15.5016 55.2379 15.6844 54.7517 16.0247C54.2655 16.365 53.8986 16.846 53.7018 17.401H59.1293Z" fill="#231916"/>
<path d="M76.5354 20.3142C76.1655 21.8454 75.2392 23.1897 73.9317 24.0926C72.6242 24.9955 71.0264 25.3942 69.4408 25.2134C67.8552 25.0325 66.3919 24.2846 65.3279 23.1113C64.2639 21.9379 63.6732 20.4206 63.6675 18.8466C63.6781 17.2707 64.2771 15.7539 65.3501 14.586C66.4231 13.4181 67.8948 12.6809 69.4841 12.5154C71.0734 12.3499 72.6687 12.7677 73.9654 13.6888C75.2621 14.6099 76.1692 15.9699 76.5134 17.5089H72.8368C72.6282 16.9957 72.2639 16.5586 71.7938 16.2573C71.3238 15.956 70.7708 15.8052 70.2105 15.8254C69.8188 15.8007 69.4264 15.8636 69.0627 16.0093C68.699 16.155 68.3733 16.3798 68.1101 16.667C67.5838 17.2813 67.3035 18.0643 67.322 18.8683C67.2923 19.259 67.3451 19.6514 67.4772 20.0209C67.6092 20.3904 67.8175 20.7289 68.089 21.0149C68.3605 21.3009 68.6893 21.5282 69.0544 21.6825C69.4196 21.8368 69.8133 21.9146 70.2105 21.9111C70.759 21.929 71.3007 21.7871 71.7678 21.503C72.2349 21.219 72.6067 20.8055 72.8368 20.3142H76.5354Z" fill="#231916"/>
<path d="M78.0078 12.8905H81.4001V14.164C81.5886 13.8372 81.8416 13.551 82.144 13.3221C82.8974 12.7407 83.8359 12.4424 84.7917 12.4806C85.3104 12.4689 85.8257 12.5647 86.3044 12.7618C86.7831 12.9589 87.2146 13.2529 87.5708 13.6248C87.8613 13.9176 88.105 14.2523 88.2935 14.6173C88.5353 14.2339 88.8297 13.8853 89.1683 13.5813C89.9821 12.854 91.0467 12.4604 92.1449 12.4808C92.7322 12.4617 93.3175 12.5587 93.8662 12.7662C94.415 12.9738 94.916 13.2877 95.3397 13.6893C96.478 14.8762 96.6525 15.6747 96.6525 18.3291V24.8675H93.02V18.5017C93.0557 17.9304 92.9738 17.3579 92.7791 16.8186C92.6586 16.5012 92.4334 16.233 92.1398 16.0569C91.8461 15.8808 91.501 15.807 91.1598 15.8475C90.7991 15.8099 90.4356 15.8857 90.1212 16.0639C89.8068 16.2421 89.5575 16.5138 89.4089 16.84C89.2104 17.311 89.1208 17.8197 89.1466 18.3291V24.8675H85.5132V18.3508C85.5339 17.8454 85.4597 17.3405 85.2943 16.8617C85.1773 16.5436 84.9577 16.2721 84.6692 16.0889C84.3807 15.9057 84.0391 15.8209 83.697 15.8475C83.3228 15.8123 82.9469 15.896 82.6242 16.0862C82.3014 16.2764 82.0487 16.5632 81.9028 16.9049C81.7038 17.4134 81.6142 17.9572 81.6399 18.5017V24.8675H78.0074L78.0078 12.8905Z" fill="#231916"/>
<path d="M98.1896 18.8467C98.1925 17.1563 98.8759 15.5362 100.09 14.3424C101.303 13.1486 102.948 12.4788 104.662 12.4802C106.376 12.4817 108.02 13.1542 109.231 14.35C110.443 15.5459 111.124 17.1671 111.124 18.8576C111.124 20.548 110.443 22.1693 109.231 23.3651C108.02 24.561 106.376 25.2335 104.662 25.2349C102.948 25.2364 101.303 24.5666 100.09 23.3728C98.8759 22.179 98.1925 20.5589 98.1896 18.8684V18.8467ZM101.823 18.8901C101.826 19.6946 102.152 20.4649 102.731 21.0322C103.309 21.5995 104.092 21.9173 104.908 21.9159C105.724 21.9144 106.505 21.5939 107.082 21.0246C107.658 20.4553 107.982 19.6837 107.982 18.8793C107.982 18.0749 107.658 17.3033 107.082 16.734C106.505 16.1647 105.724 15.8441 104.908 15.8427C104.092 15.8413 103.309 16.1591 102.731 16.7263C102.152 17.2936 101.826 18.064 101.823 18.8684V18.8901Z" fill="#231916"/>
<path d="M118.038 16.257C118.016 15.9981 117.973 15.3506 116.901 15.3506C116.135 15.3506 115.872 15.8254 115.872 16.1491C115.872 16.6887 116.769 17.0555 117.732 17.3361C119.789 17.8971 121.978 18.5014 121.978 21.091C121.978 23.7236 119.723 25.2771 117.031 25.2771C115.194 25.2771 112.414 24.4572 112.086 21.3068H115.697C115.741 21.629 115.908 21.9225 116.165 22.127C116.421 22.3316 116.747 22.4317 117.076 22.407C117.688 22.407 118.345 22.0621 118.345 21.4795C118.345 20.6593 117.448 20.5514 115.128 19.6668C113.552 19.1703 112.239 18.156 112.239 16.5376C112.239 14.056 114.428 12.4805 116.944 12.4805C118.541 12.4805 121.299 13.1063 121.605 16.257H118.038Z" fill="#231916"/>
<defs>
<linearGradient id="paint0_linear_729_10479" x1="7.25392" y1="25.526" x2="7.25392" y2="1.4533" gradientUnits="userSpaceOnUse">
<stop stop-color="#008DD3"/>
<stop offset="1" stop-color="#024683"/>
</linearGradient>
<linearGradient id="paint1_linear_729_10479" x1="3.37326" y1="25.526" x2="3.37326" y2="1.45336" gradientUnits="userSpaceOnUse">
<stop stop-color="#007CC4"/>
<stop offset="1" stop-color="#2D4994"/>
</linearGradient>
<linearGradient id="paint2_linear_729_10479" x1="8.07143" y1="25.5261" x2="8.07143" y2="1.45339" gradientUnits="userSpaceOnUse">
<stop stop-color="#006EB8"/>
<stop offset="1" stop-color="#384399"/>
</linearGradient>
<linearGradient id="paint3_linear_729_10479" x1="5.03583" y1="25.526" x2="5.03583" y2="1.45336" gradientUnits="userSpaceOnUse">
<stop stop-color="#0073BC"/>
<stop offset="1" stop-color="#1E50A2"/>
</linearGradient>
<linearGradient id="paint4_linear_729_10479" x1="5.76449" y1="21.5387" x2="5.76449" y2="5.44546" gradientUnits="userSpaceOnUse">
<stop stop-color="#1D5CA4"/>
<stop offset="1" stop-color="#043591"/>
</linearGradient>
<linearGradient id="paint5_linear_729_10479" x1="7.5435" y1="21.5389" x2="7.5435" y2="5.44564" gradientUnits="userSpaceOnUse">
<stop stop-color="#265FAC"/>
<stop offset="1" stop-color="#004098"/>
</linearGradient>
<linearGradient id="paint6_linear_729_10479" x1="4.0517" y1="4.86961" x2="15.8862" y2="15.6643" gradientUnits="userSpaceOnUse">
<stop stop-color="#006DB9"/>
<stop offset="1" stop-color="#024683"/>
</linearGradient>
<linearGradient id="paint7_linear_729_10479" x1="4.05056" y1="4.87099" x2="15.8854" y2="15.6659" gradientUnits="userSpaceOnUse">
<stop stop-color="#2465AA"/>
<stop offset="1" stop-color="#0E4391"/>
</linearGradient>
<linearGradient id="paint8_linear_729_10479" x1="3.47005" y1="5.15574" x2="14.0403" y2="16.1209" gradientUnits="userSpaceOnUse">
<stop stop-color="#005AAB"/>
<stop offset="1" stop-color="#0E4391"/>
</linearGradient>
<linearGradient id="paint9_linear_729_10479" x1="19.0587" y1="8.6493" x2="19.0587" y2="32.7226" gradientUnits="userSpaceOnUse">
<stop stop-color="#DF4693"/>
<stop offset="1" stop-color="#8F2982"/>
</linearGradient>
<linearGradient id="paint10_linear_729_10479" x1="22.9395" y1="8.64929" x2="22.9395" y2="32.7226" gradientUnits="userSpaceOnUse">
<stop stop-color="#E85197"/>
<stop offset="1" stop-color="#BE3E91"/>
</linearGradient>
<linearGradient id="paint11_linear_729_10479" x1="18.2411" y1="8.6493" x2="18.2411" y2="32.7226" gradientUnits="userSpaceOnUse">
<stop stop-color="#C9318C"/>
<stop offset="1" stop-color="#90246B"/>
</linearGradient>
<linearGradient id="paint12_linear_729_10479" x1="21.2768" y1="8.64929" x2="21.2768" y2="32.7226" gradientUnits="userSpaceOnUse">
<stop stop-color="#DC4291"/>
<stop offset="1" stop-color="#B02F8C"/>
</linearGradient>
<linearGradient id="paint13_linear_729_10479" x1="20.5482" y1="12.6366" x2="20.5482" y2="28.7303" gradientUnits="userSpaceOnUse">
<stop stop-color="#B61185"/>
<stop offset="1" stop-color="#90225F"/>
</linearGradient>
<linearGradient id="paint14_linear_729_10479" x1="18.769" y1="12.6367" x2="18.769" y2="28.7303" gradientUnits="userSpaceOnUse">
<stop stop-color="#971B63"/>
<stop offset="1" stop-color="#902057"/>
</linearGradient>
<linearGradient id="paint15_linear_729_10479" x1="728441" y1="43547.9" x2="731984" y2="40262.9" gradientUnits="userSpaceOnUse">
<stop stop-color="#DF4693"/>
<stop offset="1" stop-color="#8F2982"/>
</linearGradient>
<linearGradient id="paint16_linear_729_10479" x1="22.2621" y1="29.3048" x2="10.427" y2="18.5096" gradientUnits="userSpaceOnUse">
<stop stop-color="#E74D96"/>
<stop offset="1" stop-color="#A7358E"/>
</linearGradient>
<linearGradient id="paint17_linear_729_10479" x1="22.8427" y1="29.02" x2="12.2722" y2="18.0545" gradientUnits="userSpaceOnUse">
<stop stop-color="#E85298"/>
<stop offset="1" stop-color="#9B2A8B"/>
</linearGradient>
</defs>
</svg>
